General

Format                         : MPEG-4
Format profile                 : Base Media
Codec ID                       : isom
File size                      : 93.8 MiB
Duration                       : 5mn 12s
Overall bit rate mode          : Variable
Overall bit rate               : 2 517 Kbps
Encoded date                   : UTC 2012-10-06 02:28:43
Tagged date                    : UTC 2012-10-06 02:28:43

Video
ID                             : 1
Format                         : AVC
Format/Info                    : Advanced Video Codec
Format profile                 : High@L3.0
Format settings, CABAC         : Yes
Format settings, ReFrames      : 2 frames
Codec ID                       : avc1
Codec ID/Info                  : Advanced Video Coding
Duration                       : 5mn 12s
Bit rate                       : 2 450 Kbps
Maximum bit rate               : 7 808 Kbps
Width                          : 720 pixels
Height                         : 480 pixels
Display aspect ratio           : 16:9
Original display aspect ratio  : 16:9
Frame rate mode                : Constant
Frame rate                     : 23.976 fps
Standard                       : NTSC
Color space                    : YUV
Chroma subsampling             : 4:2:0
Bit depth                      : 8 bits
Scan type                      : Progressive
Bits/(Pixel*Frame)             : 0.296
Stream size                    : 91.3 MiB (97%)


Audio
ID                             : 2
Format                         : AAC
Format/Info                    : Advanced Audio Codec
Format profile                 : LC
Codec ID                       : 40
Duration                       : 5mn 12s
Bit rate mode                  : Variable
Bit rate                       : 63.8 Kbps
Maximum bit rate               : 75.9 Kbps
Channel(s)                     : 2 channels
Channel positions              : Front: L R
Sampling rate                  : 44.1 KHz
Compression mode               : Lossy
Stream size                    : 2.38 MiB (3%)